<svg viewBox="0 0 221 58" version="1.1" xmlns:xlink="http://www.w3.org/1999/xlink" xmlns="http://www.w3.org/2000/svg" id="Layer_1">
  
  <defs>
    <style>
      .st0, .st1 {
        fill: none;
      }

      .st2, .st3 {
        fill: #fff;
      }

      .st2, .st4, .st5 {
        fill-rule: evenodd;
      }

      .st1 {
        stroke: #fff;
        stroke-miterlimit: 10;
        stroke-width: 2.6px;
      }

      .st6, .st4 {
        fill: #ee3031;
      }

      .st7, .st5 {
        fill: #2372ba;
      }

      .st8 {
        clip-path: url(#clippath);
      }
    </style>
    <clipPath id="clippath">
      <rect height="57.1" width="221" class="st0"></rect>
    </clipPath>
  </defs>
  <g class="st8">
    <g>
      <path d="M8.2,23.1h11.3l-4.1,19.4h9.4l-1.6,6.8H3.5l5.3-25.1s.1-.6,0-.8c-.2-.2-.5-.4-.5-.4Z" class="st2"></path>
      <path d="M8.2,23.1h11.3l-4.1,19.4h9.4l-1.6,6.8H3.5l5.3-25.1s.1-.6,0-.8c-.2-.2-.5-.4-.5-.4Z" class="st1"></path>
      <path d="M28.2,31.3h9.3l-3.9,18h-8.7l3.6-16.8s.1-.6,0-.8c-.2-.2-.2-.4-.2-.4Z" class="st2"></path>
      <path d="M28.2,31.3h9.3l-3.9,18h-8.7l3.6-16.8s.1-.6,0-.8c-.2-.2-.2-.4-.2-.4Z" class="st1"></path>
      <path d="M97.8,38c-1.6-.3-4.8-1.6-6.1.4-.8,2.5-1.5,5.1-2.1,7.8,0,.3-.1.5-.2.8-.3,1.5-.5,2.4-.5,2.4h-8.7l3.6-16.8s.1-.6,0-.8c-.2-.2-.2-.4-.2-.4h9.3s-.3,1.3-.4,1.8c0,0,1.9-1.8,3.6-2,1.7-.1,1.6-.1,3,.2,0,0-1.3,6.7-1.3,6.7Z" class="st2"></path>
      <path d="M97.8,38c-1.6-.3-4.8-1.6-6.1.4-.8,2.5-1.5,5.1-2.1,7.8,0,.3-.1.5-.2.8-.3,1.5-.5,2.4-.5,2.4h-8.7l3.6-16.8s.1-.6,0-.8c-.2-.2-.2-.4-.2-.4h9.3s-.3,1.3-.4,1.8c0,0,1.9-1.8,3.6-2,1.7-.1,1.6-.1,3,.2,0,0-1.3,6.7-1.3,6.7Z" class="st1"></path>
      <path d="M100,31.3h2.6l.6-3.3,9.5-2.9-1.3,6.2h3.7l-.9,5h-3.8l-1.3,6s-.1.7,0,1c.3.4.6.4,1,.4h2.2l-1.2,5.4s-2.6.8-4.2.7c-4,0-6.8-.2-7.3-2.9,0-.4,0-.8,0-.9.1-1.2,2-9.8,2-9.8h-2.5l.9-5Z" class="st3"></path>
      <path d="M100,31.3h2.6l.6-3.3,9.5-2.9-1.3,6.2h3.7l-.9,5h-3.8l-1.3,6s-.1.7,0,1c.3.4.6.4,1,.4h2.2l-1.2,5.4s-2.6.8-4.2.7c-4,0-6.8-.2-7.3-2.9,0-.4,0-.8,0-.9.1-1.2,2-9.8,2-9.8h-2.5l.9-5Z" class="st1"></path>
      <path d="M116,31.3h9.3l.7,8.8,4.2-8.8h8.9l-13.8,24.5h-9.3l3.3-6.5-3.3-18Z" class="st2"></path>
      <path d="M116,31.3h9.3l.7,8.8,4.2-8.8h8.9l-13.8,24.5h-9.3l3.3-6.5-3.3-18Z" class="st1"></path>
      <path d="M40.4,23.1h9.8l-2.1,9.7s1.3-.6,2.2-1.1c1.9-1,4.6-1.6,6.9-.4,1.2.7,2.2,2.6,2.2,2.8.7,1.7.5,2.7.4,4.3,0,.9-.3,2.6-.9,4.2-.6,1.5-1.3,2.8-2.3,4.1,0,0-1.4,1.5-2.2,2-.5.3-1.1.7-1.7.8-.9.3-3.2.5-4.5.3-.7-.1-1.7-.5-2.2-1-.3-.3-1-.8-1.3-1-.5-.4-.5,1.6-.9,1.6-2.5,0-4.6,0-7.1,0h-1.3l5.3-25.1s.1-.6,0-.8c-.2-.2-.2-.4-.2-.4ZM46.5,39.6c.7-2.5,2.2-4.3,3.3-4,1.1.3,1.4,2.6.7,5.1-.7,2.5-2.2,4.3-3.3,4-1.1-.3-1.4-2.6-.7-5.1ZM80.4,43.3c-.7,2.4-2.6,3.8-4.8,5.2-2.8,1.8-12.4,2.6-14.7-1.8-2.3-4.5.3-12.9,5.6-15.1,5.5-2.3,12.4-1.4,14.1,2.1,1.1,2.1,1.3,5.4.3,8.1h-12.7s-.4,2.4.4,3.2c.8.7,2.2.6,3-.2,1-1,1.1-1.5,1.1-1.5h7.7ZM69.1,38c.6-2.3.7-3.3,3.6-3.2,1.2,0,1.2,1.5,1.3,3.2h-4.8Z" class="st2"></path>
      <path d="M40.4,23.1h9.8l-2.1,9.7s1.3-.6,2.2-1.1c1.9-1,4.6-1.6,6.9-.4,1.2.7,2.2,2.6,2.2,2.8.7,1.7.5,2.7.4,4.3,0,.9-.3,2.6-.9,4.2-.6,1.5-1.3,2.8-2.3,4.1,0,0-1.4,1.5-2.2,2-.5.3-1.1.7-1.7.8-.9.3-3.2.5-4.5.3-.7-.1-1.7-.5-2.2-1-.3-.3-1-.8-1.3-1-.5-.4-.5,1.6-.9,1.6-2.5,0-4.6,0-7.1,0h-1.3l5.3-25.1s.1-.6,0-.8c-.2-.2-.2-.4-.2-.4ZM46.5,39.6c.7-2.5,2.2-4.3,3.3-4,1.1.3,1.4,2.6.7,5.1-.7,2.5-2.2,4.3-3.3,4-1.1-.3-1.4-2.6-.7-5.1ZM80.4,43.3c-.7,2.4-2.6,3.8-4.8,5.2-2.8,1.8-12.4,2.6-14.7-1.8-2.3-4.5.3-12.9,5.6-15.1,5.5-2.3,12.4-1.4,14.1,2.1,1.1,2.1,1.3,5.4.3,8.1h-12.7s-.4,2.4.4,3.2c.8.7,2.2.6,3-.2,1-1,1.1-1.5,1.1-1.5h7.7ZM69.1,38c.6-2.3.7-3.3,3.6-3.2,1.2,0,1.2,1.5,1.3,3.2h-4.8Z" class="st1"></path>
      <path d="M35.7.8c4.9,1.3,9.2,8.2,9.2,9.2.4,1.2.5,3.8-.7,6.2-1.2,2.4-9,8.4-9,8.8-.9.9-1.9,4.9-1.9,4.9,0,0-7.7-5.8-9.4-8.2-1.4-2.1-3.1-5.8-.6-10.8,2.8-5.1,6.7-2.7,7.6-8.5.2-1.4-4.5-1.9-4.5-1.9,0,0,5.6-1.1,9.3.4Z" class="st2"></path>
      <path d="M31.6,2.2s-.2,1.6-.6,2.6c-1.3,3.1-4.3,2.6-6.2,5.2-3.5,4.8-1.6,10.2-1.5,9.8.3-1.6.8-3.1,1.9-4.7,2.8-4.4,8.9-6,8.8-10.1,0-1.9-2.4-2.7-2.4-2.7Z" class="st5"></path>
      <path d="M28.3.4c.7-.2,6.5,1.1,7.1,3.1,1,2.9-.1,4.3-1.5,5.7,0,0-4,3.2-5.4,4.5-1.3,1.3-4.3,4.3-3.8,6.8.5,2.6,4.9,5.9,4.9,5.9,0,0-1-3.3,0-5,2.5-4.8,10.1-8.9,11-13.1.4-1.8-.8-3.6-2.3-5.1C34.4-.8,27.6.6,28.3.4Z" class="st4"></path>
      <path d="M33,29s-3-4.5-1.3-6.9c2.1-3,8.8-6.5,10.5-12.3.4-1.4-.4-3.4-.4-3.4,0,0,2.2,2.2,2.5,4.9.4,3.2-.7,4.5-3.4,7.3-2.8,2.9-6,4.8-6.9,6.6-.9,1.8-1.1,3.8-1.1,3.8Z" class="st5"></path>
      <path d="M8.2,23.1h11.3l-4.1,19.4h9.4l-1.6,6.8H3.5l5.3-25.1s.1-.6,0-.8c-.2-.2-.5-.4-.5-.4Z" class="st4"></path>
      <path d="M28.2,31.3h9.3l-3.9,18h-8.7l3.6-16.8s.1-.6,0-.8c-.2-.2-.2-.4-.2-.4Z" class="st4"></path>
      <path d="M97.8,38c-1.6-.3-4.8-1.6-6.1.4-.8,2.5-1.5,5.1-2.1,7.8,0,.3-.1.5-.2.8-.3,1.5-.5,2.4-.5,2.4h-8.7l3.6-16.8s.1-.6,0-.8c-.2-.2-.2-.4-.2-.4h9.3s-.3,1.3-.4,1.8c0,0,1.9-1.8,3.6-2,1.7-.1,1.6-.1,3,.2,0,0-1.3,6.7-1.3,6.7Z" class="st4"></path>
      <path d="M100,31.3h2.6l.6-3.3,9.5-2.9-1.3,6.2h3.7l-.9,5h-3.8l-1.3,6s-.1.7,0,1c.3.4.6.4,1,.4h2.2l-1.2,5.4s-2.6.8-4.2.7c-4,0-6.8-.2-7.3-2.9,0-.4,0-.8,0-.9.1-1.2,2-9.8,2-9.8h-2.5l.9-5Z" class="st6"></path>
      <path d="M116,31.3h9.3l.7,8.8,4.2-8.8h8.9l-13.8,24.5h-9.3l3.3-6.5-3.3-18Z" class="st4"></path>
      <path d="M40.4,23.1h9.8l-2.1,9.7s1.3-.6,2.2-1.1c1.9-1,4.6-1.6,6.9-.4,1.2.7,2.2,2.6,2.2,2.8.7,1.7.5,2.7.4,4.3,0,.9-.3,2.6-.9,4.2-.6,1.5-1.3,2.8-2.3,4.1,0,0-1.4,1.5-2.2,2-.5.3-1.1.7-1.7.8-.9.3-3.2.5-4.5.3-.7-.1-1.7-.5-2.2-1-.3-.3-1-.8-1.3-1-.5-.4-.5,1.6-.9,1.6-2.5,0-4.6,0-7.1,0h-1.3l5.3-25.1s.1-.6,0-.8c-.2-.2-.2-.4-.2-.4ZM46.5,39.6c.7-2.5,2.2-4.3,3.3-4,1.1.3,1.4,2.6.7,5.1-.7,2.5-2.2,4.3-3.3,4-1.1-.3-1.4-2.6-.7-5.1ZM80.4,43.3c-.7,2.4-2.6,3.8-4.8,5.2-2.8,1.8-12.4,2.6-14.7-1.8-2.3-4.5.3-12.9,5.6-15.1,5.5-2.3,12.4-1.4,14.1,2.1,1.1,2.1,1.3,5.4.3,8.1h-12.7s-.4,2.4.4,3.2c.8.7,2.2.6,3-.2,1-1,1.1-1.5,1.1-1.5h7.7ZM69.1,38c.6-2.3.7-3.3,3.6-3.2,1.2,0,1.2,1.5,1.3,3.2h-4.8Z" class="st4"></path>
      <path d="M141.5,46l1.8-6.6.9-3.7c.1-.5.2-.9.2-1.2v-.5c-.1-.3-.5-.5-1.3-.6h-.9c0,0-.6,0-.6,0l.3-.8,6.6-1.1-2,7.4,1-1.6,1.5-2.3c1.6-2.3,3.1-3.5,4.4-3.5,1.3,0,2,.8,2,2.2,0,.7-.2,1.2-.5,1.6-.5.5-.9.7-1.5.7-.6,0-1.1-.2-1.4-.7l-.5-.6h-.2c0,0-.2,0-.2,0l-.3.2-.9.9c-.9,1-1.7,2.3-2.6,3.9-.5.9-.9,1.8-1.3,2.9-.5,1.3-1,2.5-1.3,3.7l-1.4,4.3h-3.2l1.3-4.6Z" class="st7"></path>
      <path d="M165.4,44.5c-1.1,1.6-2.1,2.9-3.2,4.1-1.5,1.6-3,2.4-4.5,2.5-.7,0-1.2-.3-1.7-.8-.4-.4-.6-1.1-.6-1.8,0-.5,0-1.2.3-1.9l.5-1.9,2.4-8.8c.1-.5.2-.9.2-1.2,0-.7-.4-1-1-1.1h-.9c0,0-.6,0-.6,0l.3-.8,6.5-1.1-3.9,14.6c-.3,1-.4,1.7-.4,2,0,.5.2.8.7.8.7,0,1.5-.6,2.5-1.7l1.5-1.9,1.3-1.8c.6-.9,1.1-1.8,1.7-2.9.7-1.3,1.3-2.6,1.8-3.9.4-1,.8-2.1,1.1-3.2l.4-1.5h3.3l-.6,2.3-1.3,4.7c-.6,2.1-1.1,3.9-1.4,5.3l-.6,2.3c-.2.8-.3,1.3-.3,1.7,0,.4.2.6.5.6.4,0,.9-.4,1.6-1.2l1.1-1.3.5-.7.7.6-.5.7-1.4,1.8c-.4.5-.8.9-1.3,1.3-.8.7-1.5,1-2.3,1-1.5,0-2.2-.8-2.2-2.1,0-.5,0-1,.2-1.6l.4-1.5.9-3.6-1.5,2.3Z" class="st7"></path>
      <path d="M176.8,46l1.8-6.6.9-3.7c.1-.5.2-.9.2-1.2v-.5c-.1-.3-.5-.5-1.3-.6h-.9c0,0-.6,0-.6,0l.3-.8,6.6-1.1-2,7.4,1-1.6,1.5-2.3c1.6-2.3,3.1-3.5,4.4-3.5,1.3,0,2,.8,2,2.2,0,.7-.2,1.2-.5,1.6-.5.5-.9.7-1.5.7-.6,0-1.1-.2-1.4-.7l-.5-.6h-.2c0,0-.2,0-.2,0l-.3.2-.9.9c-.9,1-1.7,2.3-2.6,3.9-.5.9-.9,1.8-1.3,2.9-.5,1.3-1,2.5-1.3,3.7l-1.4,4.3h-3.2l1.3-4.6Z" class="st7"></path>
      <path d="M193.6,45.7c0,2,.8,3.1,2.4,3.1,1.7,0,3.4-1.5,5.2-4.3.5-.9,1.1-2,1.5-3.2.4-1,.7-2.1,1-3.2s.5-2.1.5-3-.2-1.2-.6-1.7c-.4-.5-.9-.7-1.6-.7-1,0-2.1.5-3.3,1.5-.8.8-1.6,1.7-2.3,2.9-.6,1-1.1,2.1-1.6,3.2-.9,2-1.3,3.8-1.3,5.4ZM201.4,46c-1.3,1.8-2.4,2.9-3.1,3.5-1.4,1.1-2.8,1.6-4.3,1.6-1.3,0-2.3-.6-3-1.6-.7-1-1-2.1-1-3.4,0-1.4.3-2.9,1-4.5,1.2-3,3-5.5,5.3-7.5.9-.8,1.9-1.4,2.9-1.9.9-.4,1.9-.6,2.8-.6,1.1,0,2,.4,2.6,1.1l.5.6.4-1.3h3l-.4,1.5-1.1,4.1-1.6,5.7-.7,3c-.2.8-.3,1.4-.3,1.9s0,.3.1.4l.2.2h.1c.5,0,1.3-.8,2.5-2.1l.6-.8.6.7-.7.9-1.2,1.3c-1.5,1.5-2.8,2.3-3.8,2.3-1.2,0-1.8-.6-1.7-1.7,0-.4,0-.8.2-1.4l.6-2.6-.5.7Z" class="st7"></path>
      <path d="M216.4,27.5c.2-.7.3-1.3.3-1.6v-.3c-.2-.4-.7-.6-1.5-.6h-1.1s.3-.8.3-.8l6.6-1.1-6.3,23.2c-.3,1-.4,1.7-.4,2v.3c.2.3.3.4.5.4.3,0,.8-.3,1.5-1l1-1,.8-.9.4-.4.8.5-.6.8c-.5.6-.9,1.2-1.4,1.8-1.4,1.6-2.7,2.4-4,2.4-.7,0-1.2-.2-1.7-.5-.5-.4-.7-.9-.7-1.6,0-.4,0-.9.2-1.4l.7-2.8,4.6-17.4Z" class="st7"></path>
    </g>
  </g>
</svg>