<svg xmlns="http://www.w3.org/2000/svg" xmlns:xlink="http://www.w3.org/1999/xlink" x="0px" y="0px" viewBox="0 0 361.9 149.3" style="enable-background:new 0 0 361.9 149.3;" xml:space="preserve"><style type="text/css">	.st0{fill:#FFFFFF;}	.st1{fill:#DEDE20;}</style><g id="backgrounds">	<g>	</g></g><g id="don_x27_t_use"></g><g id="use">	<g>		<path class="st0" d="M136.4,1.4v0.5c0,7.7,6.3,14,14,14h36.7v131.9H203V16h36.7c7.7,0,14-6.3,14-14V1.4H136.4z"></path>		<path class="st1" d="M132.7,27.7C122,14.4,107,5.2,90.3,1.7C73.9-1.9,56.7,0.3,41.7,7.6C41,8,40.3,8.3,39.5,8.7L39,9l0.4,0.5   c5.9,6.7,14.2,9.6,22.2,7.8c22.2-4.9,44.7,2.9,58.8,20.3c10.2,12.6,14.8,29.1,12.5,45.2c-2.3,16.3-11,30.6-24.5,40.1   c-11.7,8.3-26.2,11.9-40.6,10.2c-14.4-1.7-27.7-8.5-37.2-19.2c-17.9-20.1-19.7-50.1-4.8-72.2l7,7c0.4,0.4,1,0.7,1.6,0.7   c0.3,0,0.6-0.1,0.9-0.2c0.9-0.4,1.4-1.2,1.4-2.1V23.1c0-2.3-1.8-4.1-4.1-4.1H8.9c-0.9,0-1.8,0.5-2.1,1.4c-0.4,0.9-0.2,1.8,0.5,2.5   l7.4,7.4C5.1,43.1,0,58.9,0,74.9c0,16.9,5.9,33.5,16.6,46.6c12.5,15.5,30.4,25.2,50.2,27.3c2.7,0.3,5.4,0.4,8,0.4   c17,0,33.4-5.8,46.8-16.6c15.5-12.5,25.2-30.4,27.3-50.2C151,62.6,145.2,43.2,132.7,27.7z"></path>		<path class="st0" d="M320.5,77.9c3.1-0.5,8.4-1.3,13-2.8c4.4-1.4,8.5-3.5,12.1-6.3c3.7-2.8,6.7-6.6,9.2-11.1   c2.4-4.6,3.6-10.5,3.6-17.5c0-6.3-1.1-11.8-3.1-16.2c-2.1-4.4-4.7-8.1-7.9-11c-3.2-2.9-6.8-5.1-10.8-6.7c-4-1.5-7.9-2.6-11.8-3.3   c-3.8-0.7-7.4-1.1-10.7-1.2c-3.4-0.1-5.9-0.2-7.8-0.2h-38.6v146.5h0.5c8.5,0,15.4-6.9,15.4-15.4V78.9h20.8l31.4,54.5   c5.3,9,15,14.5,25.4,14.5h0.9L320.5,77.9z M341.4,47.8c-0.8,2.8-2.4,5.4-4.7,7.8c-2.3,2.4-5.6,4.5-9.8,6.1   c-4.3,1.7-13.3,2.5-19.7,2.5h-23.6V16h23.6c6.5,0,15.4,0.8,19.7,2.5c4.2,1.7,7.5,3.7,9.8,6.1c2.3,2.4,3.9,5,4.7,7.8   c0.8,2.8,1.3,5.4,1.3,7.7C342.6,42.4,342.2,45,341.4,47.8z"></path>	</g></g><g id="Layer_1"></g></svg>